<svg width="13" height="13" viewBox="0 0 13 13" fill="none" xmlns="http://www.w3.org/2000/svg">
<path d="M12.3242 11.5171L8.52002 7.71289C9.11035 6.94971 9.42969 6.0166 9.42969 5.03516C9.42969 3.86035 8.97119 2.75879 8.14209 1.92822C7.31299 1.09766 6.2085 0.640625 5.03516 0.640625C3.86182 0.640625 2.75732 1.09912 1.92822 1.92822C1.09766 2.75732 0.640625 3.86035 0.640625 5.03516C0.640625 6.2085 1.09912 7.31299 1.92822 8.14209C2.75732 8.97266 3.86035 9.42969 5.03516 9.42969C6.0166 9.42969 6.94824 9.11035 7.71143 8.52148L11.5156 12.3242C11.5268 12.3354 11.54 12.3442 11.5546 12.3503C11.5692 12.3563 11.5848 12.3594 11.6006 12.3594C11.6164 12.3594 11.632 12.3563 11.6466 12.3503C11.6611 12.3442 11.6744 12.3354 11.6855 12.3242L12.3242 11.687C12.3354 11.6759 12.3442 11.6626 12.3503 11.648C12.3563 11.6335 12.3594 11.6178 12.3594 11.6021C12.3594 11.5863 12.3563 11.5706 12.3503 11.5561C12.3442 11.5415 12.3354 11.5282 12.3242 11.5171ZM7.35547 7.35547C6.73438 7.9751 5.91113 8.31641 5.03516 8.31641C4.15918 8.31641 3.33594 7.9751 2.71484 7.35547C2.09522 6.73438 1.75391 5.91113 1.75391 5.03516C1.75391 4.15918 2.09522 3.33447 2.71484 2.71484C3.33594 2.09522 4.15918 1.75391 5.03516 1.75391C5.91113 1.75391 6.73584 2.09375 7.35547 2.71484C7.9751 3.33594 8.31641 4.15918 8.31641 5.03516C8.31641 5.91113 7.9751 6.73584 7.35547 7.35547Z" fill="#989898"/>
</svg>
